<svg viewBox="0 0 100 100" class="w-14 h-14 rounded-full border border-amber-500/30 bg-surface-container-lowest overflow-hidden flex-shrink-0 relative z-10 shadow-lg shadow-amber-950/20"><circle cx="50" cy="50" r="48" fill="#090806"></circle><circle cx="25" cy="30" r="2.5" fill="#f59e0b" fill-opacity="0.4"></circle><circle cx="75" cy="35" r="2" fill="#f59e0b" fill-opacity="0.4"></circle><circle cx="35" cy="75" r="3" fill="#f59e0b" fill-opacity="0.4"></circle><circle cx="80" cy="70" r="1.5" fill="#f59e0b" fill-opacity="0.4"></circle><line x1="25" y1="30" x2="75" y2="35" stroke="rgba(245, 158, 11, 0.2)" stroke-width="0.75"></line><line x1="35" y1="75" x2="75" y2="35" stroke="rgba(245, 158, 11, 0.2)" stroke-width="0.75"></line><line x1="35" y1="75" x2="80" y2="70" stroke="rgba(245, 158, 11, 0.2)" stroke-width="0.75"></line><g class="animate-whale-rotate" style="transform-origin: 50px 50px;"><circle cx="50" cy="50" r="32" stroke="rgba(245, 158, 11, 0.3)" stroke-width="1" stroke-dasharray="4,8" fill="none"></circle></g><path d="M50,22 C44,38 28,48 18,53 C33,56 43,60 48,74 C53,60 63,56 78,53 C68,48 56,38 50,22 Z" fill="#ffb77b" fill-opacity="0.9"></path><path d="M32,53 L68,53" stroke="#090806" stroke-width="1.5"></path><circle cx="50" cy="53" r="3.5" fill="#090806" stroke="#ffb77b" stroke-width="1.5"></circle><polygon points="50,9 59,14 59,24 50,29 41,24 41,14" fill="none" stroke="rgba(245, 158, 11, 0.6)" stroke-width="1"></polygon></svg>